<svg width="21" height="20" viewBox="0 0 21 20" fill="none" xmlns="http://www.w3.org/2000/svg">
<path d="M10.5196 4.16655C10.5205 3.83324 10.4549 3.5031 10.3264 3.19555C10.1979 2.88799 10.0092 2.60923 9.77144 2.37567C9.53366 2.1421 9.25157 1.95844 8.94177 1.83549C8.63196 1.71254 8.3007 1.65278 7.96747 1.65972C7.63423 1.66667 7.30574 1.74018 7.00133 1.87593C6.69692 2.01169 6.42273 2.20694 6.19489 2.45022C5.96704 2.69349 5.79014 2.97987 5.67459 3.29251C5.55905 3.60515 5.50718 3.93774 5.52205 4.27071C5.03222 4.39666 4.57747 4.63242 4.19224 4.96014C3.80702 5.28786 3.50142 5.69894 3.29859 6.16225C3.09576 6.62556 3.00102 7.12896 3.02154 7.63431C3.04207 8.13965 3.17732 8.63371 3.41705 9.07905C2.99554 9.42149 2.66407 9.86174 2.4515 10.3615C2.23893 10.8612 2.15168 11.4054 2.19736 11.9465C2.24303 12.4877 2.42023 13.0095 2.71356 13.4666C3.00688 13.9236 3.40744 14.3021 3.88039 14.569C3.82198 15.0209 3.85684 15.4799 3.98279 15.9178C4.10875 16.3557 4.32313 16.7631 4.61271 17.1148C4.90228 17.4666 5.26089 17.7553 5.6664 17.963C6.07191 18.1708 6.5157 18.2932 6.97037 18.3227C7.42503 18.3522 7.88092 18.2881 8.30987 18.1346C8.73883 17.981 9.13174 17.7411 9.46435 17.4297C9.79696 17.1183 10.0622 16.742 10.2437 16.3241C10.4252 15.9062 10.5191 15.4555 10.5196 14.9999V4.16655Z" stroke="white" stroke-width="1.66667" stroke-linecap="round" stroke-linejoin="round"/>
<path d="M10.5195 4.16655C10.5186 3.83324 10.5842 3.5031 10.7127 3.19555C10.8412 2.88799 11.0299 2.60923 11.2677 2.37567C11.5054 2.1421 11.7875 1.95844 12.0973 1.83549C12.4071 1.71254 12.7384 1.65278 13.0716 1.65972C13.4049 1.66667 13.7334 1.74018 14.0378 1.87593C14.3422 2.01169 14.6164 2.20694 14.8442 2.45022C15.0721 2.69349 15.249 2.97987 15.3645 3.29251C15.48 3.60515 15.5319 3.93774 15.517 4.27071C16.0069 4.39666 16.4616 4.63242 16.8469 4.96014C17.2321 5.28786 17.5377 5.69894 17.7405 6.16225C17.9433 6.62556 18.0381 7.12896 18.0176 7.63431C17.997 8.13965 17.8618 8.63371 17.622 9.07905C18.0436 9.42149 18.375 9.86174 18.5876 10.3615C18.8002 10.8612 18.8874 11.4054 18.8417 11.9465C18.7961 12.4877 18.6189 13.0095 18.3255 13.4666C18.0322 13.9236 17.6317 14.3021 17.1587 14.569C17.2171 15.0209 17.1823 15.4799 17.0563 15.9178C16.9303 16.3557 16.716 16.7631 16.4264 17.1148C16.1368 17.4666 15.7782 17.7553 15.3727 17.963C14.9672 18.1708 14.5234 18.2932 14.0687 18.3227C13.6141 18.3522 13.1582 18.2881 12.7292 18.1346C12.3003 17.981 11.9073 17.7411 11.5747 17.4297C11.2421 17.1183 10.9769 16.742 10.7954 16.3241C10.6139 15.9062 10.52 15.4555 10.5195 14.9999V4.16655Z" stroke="white" stroke-width="1.66667" stroke-linecap="round" stroke-linejoin="round"/>
<path d="M13.0195 10.8333C12.3199 10.5872 11.709 10.1392 11.264 9.54584C10.819 8.95251 10.5599 8.24056 10.5195 7.5C10.4792 8.24056 10.2201 8.95251 9.77509 9.54584C9.3301 10.1392 8.71916 10.5872 8.01953 10.8333" stroke="white" stroke-width="1.66667" stroke-linecap="round" stroke-linejoin="round"/>
<path d="M15.1855 5.41659C15.3872 5.06707 15.5013 4.67393 15.518 4.27075" stroke="white" stroke-width="1.66667" stroke-linecap="round" stroke-linejoin="round"/>
<path d="M5.52197 4.27075C5.53845 4.67386 5.65225 5.067 5.85364 5.41659" stroke="white" stroke-width="1.66667" stroke-linecap="round" stroke-linejoin="round"/>
<path d="M3.41699 9.08C3.56944 8.95584 3.73258 8.84541 3.90449 8.75" stroke="white" stroke-width="1.66667" stroke-linecap="round" stroke-linejoin="round"/>
<path d="M17.1348 8.75C17.3067 8.84541 17.4698 8.95584 17.6223 9.08" stroke="white" stroke-width="1.66667" stroke-linecap="round" stroke-linejoin="round"/>
<path d="M5.51954 15.0001C4.94523 15.0003 4.38059 14.8522 3.88037 14.5701" stroke="white" stroke-width="1.66667" stroke-linecap="round" stroke-linejoin="round"/>
<path d="M17.1587 14.5701C16.6585 14.8522 16.0938 15.0003 15.5195 15.0001" stroke="white" stroke-width="1.66667" stroke-linecap="round" stroke-linejoin="round"/>
</svg>
