<svg width="21" height="20" viewBox="0 0 21 20" fill="none" xmlns="http://www.w3.org/2000/svg">
<path d="M4.54997 13.75C3.29997 14.8 2.8833 17.9167 2.8833 17.9167C2.8833 17.9167 5.99997 17.5 7.04997 16.25C7.64163 15.55 7.6333 14.475 6.97497 13.825C6.65106 13.5159 6.22438 13.3372 5.77682 13.3234C5.32927 13.3095 4.89236 13.4615 4.54997 13.75Z" stroke="white" stroke-width="1.66667" stroke-linecap="round" stroke-linejoin="round"/>
<path d="M10.7998 12.5L8.2998 10C8.74326 8.84957 9.30164 7.74676 9.96647 6.70838C10.9375 5.15587 12.2895 3.87758 13.894 2.99512C15.4985 2.11266 17.302 1.65535 19.1331 1.66671C19.1331 3.93338 18.4831 7.91671 14.1331 10.8334C13.0805 11.499 11.9638 12.0573 10.7998 12.5Z" stroke="white" stroke-width="1.66667" stroke-linecap="round" stroke-linejoin="round"/>
<path d="M8.29997 9.99993H4.1333C4.1333 9.99993 4.59163 7.47493 5.79997 6.6666C7.14997 5.7666 9.96663 6.6666 9.96663 6.6666" stroke="white" stroke-width="1.66667" stroke-linecap="round" stroke-linejoin="round"/>
<path d="M10.7998 12.4999V16.6666C10.7998 16.6666 13.3248 16.2083 14.1331 14.9999C15.0331 13.6499 14.1331 10.8333 14.1331 10.8333" stroke="white" stroke-width="1.66667" stroke-linecap="round" stroke-linejoin="round"/>
</svg>
