<svg width="21" height="20" viewBox="0 0 21 20" fill="none" xmlns="http://www.w3.org/2000/svg">
<path d="M9.40668 16.6667C7.9434 16.6712 6.53189 16.1255 5.45211 15.1379C4.37233 14.1504 3.70315 12.793 3.57729 11.3352C3.45143 9.8773 3.87809 8.42538 4.77264 7.26737C5.66719 6.10935 6.96429 5.32983 8.40668 5.08341C13.1567 4.16675 14.4067 3.73341 16.0733 1.66675C16.9067 3.33341 17.74 5.15008 17.74 8.33341C17.74 12.9167 13.7567 16.6667 9.40668 16.6667Z" stroke="white" stroke-width="1.66667" stroke-linecap="round" stroke-linejoin="round"/>
<path d="M1.90674 17.5C1.90674 15 3.4484 13.0333 6.14007 12.5C8.15674 12.1 10.2401 10.8333 11.0734 10" stroke="white" stroke-width="1.66667" stroke-linecap="round" stroke-linejoin="round"/>
</svg>
