<svg width="21" height="20" viewBox="0 0 21 20" fill="none" xmlns="http://www.w3.org/2000/svg">
<path d="M13.7228 17.5V15.8333C13.7228 14.9493 13.3716 14.1014 12.7465 13.4763C12.1214 12.8512 11.2735 12.5 10.3895 12.5H5.38949C4.50543 12.5 3.65758 12.8512 3.03246 13.4763C2.40734 14.1014 2.05615 14.9493 2.05615 15.8333V17.5" stroke="white" stroke-width="1.66667" stroke-linecap="round" stroke-linejoin="round"/>
<path d="M7.88949 9.16667C9.73043 9.16667 11.2228 7.67428 11.2228 5.83333C11.2228 3.99238 9.73043 2.5 7.88949 2.5C6.04854 2.5 4.55615 3.99238 4.55615 5.83333C4.55615 7.67428 6.04854 9.16667 7.88949 9.16667Z" stroke="white" stroke-width="1.66667" stroke-linecap="round" stroke-linejoin="round"/>
<path d="M18.7231 17.5001V15.8334C18.7226 15.0948 18.4768 14.3774 18.0243 13.7937C17.5718 13.2099 16.9383 12.793 16.2231 12.6084" stroke="white" stroke-width="1.66667" stroke-linecap="round" stroke-linejoin="round"/>
<path d="M13.7231 2.6084C14.4402 2.79198 15.0757 3.20898 15.5295 3.79366C15.9833 4.37833 16.2297 5.09742 16.2297 5.83757C16.2297 6.57771 15.9833 7.2968 15.5295 7.88147C15.0757 8.46615 14.4402 8.88315 13.7231 9.06673" stroke="white" stroke-width="1.66667" stroke-linecap="round" stroke-linejoin="round"/>
</svg>
